<svg xmlns="http://www.w3.org/2000/svg" version="1.1" xmlns:xlink="http://www.w3.org/1999/xlink" xmlns:svgjs="http://svgjs.com/svgjs" width="200" height="560" preserveAspectRatio="none" viewBox="0 0 200 560"><g mask="url(&quot;#SvgjsMask1036&quot;)" fill="none"><rect width="200" height="560" x="0" y="0" fill="#0e2a47"></rect><use xlink:href="#SvgjsPath1037" x="30" y="30" stroke="#1c538e"></use><use xlink:href="#SvgjsPath1038" x="30" y="90" stroke="#1c538e"></use><use xlink:href="#SvgjsPath1039" x="30" y="150" stroke="#1c538e"></use><use xlink:href="#SvgjsPath1039" x="30" y="210" stroke="#1c538e"></use><use xlink:href="#SvgjsPath1037" x="30" y="270" stroke="#1c538e"></use><use xlink:href="#SvgjsPath1039" x="30" y="330" stroke="#1c538e"></use><use xlink:href="#SvgjsPath1040" x="30" y="390" stroke="#1c538e"></use><use xlink:href="#SvgjsPath1041" x="30" y="450" stroke="#1c538e"></use><use xlink:href="#SvgjsPath1039" x="30" y="510" stroke="#1c538e"></use><use xlink:href="#SvgjsPath1039" x="30" y="570" stroke="#1c538e"></use><use xlink:href="#SvgjsPath1037" x="90" y="30" stroke="#1c538e"></use><use xlink:href="#SvgjsPath1038" x="90" y="90" stroke="#1c538e"></use><use xlink:href="#SvgjsPath1037" x="90" y="150" stroke="#1c538e"></use><use xlink:href="#SvgjsPath1041" x="90" y="210" stroke="#1c538e"></use><use xlink:href="#SvgjsPath1039" x="90" y="270" stroke="#1c538e"></use><use xlink:href="#SvgjsPath1039" x="90" y="330" stroke="#1c538e"></use><use xlink:href="#SvgjsPath1039" x="90" y="390" stroke="#1c538e"></use><use xlink:href="#SvgjsPath1040" x="90" y="450" stroke="#1c538e"></use><use xlink:href="#SvgjsPath1039" x="90" y="510" stroke="#1c538e"></use><use xlink:href="#SvgjsPath1037" x="90" y="570" stroke="#1c538e"></use><use xlink:href="#SvgjsPath1038" x="150" y="30" stroke="#1c538e"></use><use xlink:href="#SvgjsPath1038" x="150" y="90" stroke="#1c538e"></use><use xlink:href="#SvgjsPath1041" x="150" y="150" stroke="#1c538e"></use><use xlink:href="#SvgjsPath1038" x="150" y="210" stroke="#1c538e"></use><use xlink:href="#SvgjsPath1039" x="150" y="270" stroke="#1c538e"></use><use xlink:href="#SvgjsPath1038" x="150" y="330" stroke="#1c538e"></use><use xlink:href="#SvgjsPath1037" x="150" y="390" stroke="#1c538e"></use><use xlink:href="#SvgjsPath1037" x="150" y="450" stroke="#1c538e"></use><use xlink:href="#SvgjsPath1037" x="150" y="510" stroke="#1c538e"></use><use xlink:href="#SvgjsPath1040" x="150" y="570" stroke="#1c538e"></use><use xlink:href="#SvgjsPath1037" x="210" y="30" stroke="#1c538e"></use><use xlink:href="#SvgjsPath1039" x="210" y="90" stroke="#1c538e"></use><use xlink:href="#SvgjsPath1037" x="210" y="150" stroke="#1c538e"></use><use xlink:href="#SvgjsPath1041" x="210" y="210" stroke="#1c538e"></use><use xlink:href="#SvgjsPath1037" x="210" y="270" stroke="#1c538e"></use><use xlink:href="#SvgjsPath1037" x="210" y="330" stroke="#1c538e"></use><use xlink:href="#SvgjsPath1038" x="210" y="390" stroke="#1c538e"></use><use xlink:href="#SvgjsPath1037" x="210" y="450" stroke="#1c538e"></use><use xlink:href="#SvgjsPath1042" x="210" y="510" stroke="#1c538e" stroke-width="3"></use><use xlink:href="#SvgjsPath1041" x="210" y="570" stroke="#1c538e"></use></g><defs><mask id="SvgjsMask1036"><rect width="200" height="560" fill="#ffffff"></rect></mask><path d="M-1 0 a1 1 0 1 0 2 0 a1 1 0 1 0 -2 0z" id="SvgjsPath1038"></path><path d="M-3 0 a3 3 0 1 0 6 0 a3 3 0 1 0 -6 0z" id="SvgjsPath1040"></path><path d="M-5 0 a5 5 0 1 0 10 0 a5 5 0 1 0 -10 0z" id="SvgjsPath1037"></path><path d="M2 -2 L-2 2z" id="SvgjsPath1041"></path><path d="M6 -6 L-6 6z" id="SvgjsPath1039"></path><path d="M30 -30 L-30 30z" id="SvgjsPath1042"></path></defs></svg>